<svg xmlns="http://www.w3.org/2000/svg" xmlns:xlink="http://www.w3.org/1999/xlink" width="53" height="59" viewBox="0 0 53 59">
    <defs>
        <path id="a" d="M5.31 14.064c1.404 0 2.52-.447 3.347-1.34.69-.742 1.097-1.662 1.22-2.758H8.5c-.142.685-.357 1.238-.645 1.659-.544.799-1.335 1.198-2.375 1.198-1.13 0-1.98-.38-2.55-1.138-.569-.758-.854-1.748-.854-2.967 0-1.489.316-2.594.947-3.315.631-.72 1.46-1.08 2.485-1.08.841 0 1.495.195 1.96.588.466.392.777.924.933 1.595h1.375c-.08-.884-.484-1.673-1.212-2.368-.728-.695-1.751-1.042-3.07-1.042-1.546 0-2.758.534-3.637 1.602C1.045 5.68.638 6.94.638 8.477c0 2.023.541 3.519 1.624 4.488.822.733 1.838 1.099 3.048 1.099z"/>
        <path id="b" d="M7.066 10.89V9.65H1.791V.475H.38V10.89z"/>
        <path id="c" d="M5.176 13.795V4.62h3.51V3.38H.233v1.24h3.51v9.175z"/>
        <path id="d" d="M2.652 13.795V9.392h3.275c1.05 0 1.827-.302 2.333-.904.506-.603.759-1.31.759-2.124 0-.945-.284-1.68-.851-2.201-.567-.523-1.314-.784-2.24-.784H1.24v10.416h1.41zM5.459 8.2H2.652V4.592h2.807c.544 0 .972.073 1.284.22.567.274.85.793.85 1.56 0 .68-.197 1.155-.592 1.424-.394.27-.908.404-1.542.404z"/>
    </defs>
    <g fill="none" fill-rule="nonzero">
        <path fill="#008E97" d="M0 .726h26.137v25.411H0z"/>
        <g transform="translate(7.986 5.082)">
            <use fill="#000" xlink:href="#a"/>
            <use fill="#FFF" xlink:href="#a"/>
        </g>
        <path fill="#008E97" d="M26.863 33.397H53v25.411H26.863z"/>
        <g transform="translate(37.027 40.658)">
            <use fill="#000" xlink:href="#b"/>
            <use fill="#FFF" xlink:href="#b"/>
        </g>
        <g>
            <path fill="#F58220" d="M26.863 7.26H53v25.411H26.863z"/>
            <g transform="translate(36.301 12.342)">
                <use fill="#000" xlink:href="#c"/>
                <use fill="#FFF" xlink:href="#c"/>
            </g>
        </g>
        <g>
            <path fill="#F58220" d="M0 26.863h26.137v25.411H0z"/>
            <g transform="translate(9.438 31.22)">
                <use fill="#000" xlink:href="#d"/>
                <use fill="#FFF" xlink:href="#d"/>
            </g>
        </g>
    </g>
</svg>
