<svg xmlns="http://www.w3.org/2000/svg" width="24" height="19" viewBox="0 0 24 19">
    <g fill="#F7F8FC" fill-rule="nonzero">
        <path d="M2.304 5.813c.303.214 1.218.85 2.745 1.908a671.634 671.634 0 0 1 3.509 2.444c.09.063.279.2.569.409.29.21.531.38.723.51.192.128.424.274.697.434.272.16.529.282.77.361.241.081.464.121.67.121h.027c.205 0 .428-.04.67-.12.24-.08.497-.201.77-.362.272-.16.504-.306.696-.435.192-.13.433-.299.723-.509.29-.21.48-.346.57-.409l6.267-4.353a6.362 6.362 0 0 0 1.634-1.647c.437-.643.656-1.317.656-2.022 0-.59-.212-1.094-.636-1.514A2.07 2.07 0 0 0 21.857 0H2.143C1.455 0 .926.232.556.696.186 1.161 0 1.741 0 2.437 0 3 .246 3.61.737 4.266c.49.656 1.013 1.172 1.567 1.547z"/>
        <path d="M22.66 7.185c-2.928 2.017-5.151 3.584-6.669 4.702-.509.381-.922.679-1.239.892-.317.214-.738.432-1.265.654-.527.223-1.018.334-1.473.334h-.027c-.456 0-.947-.11-1.474-.334-.526-.222-.948-.44-1.265-.654-.317-.213-.73-.51-1.239-.892-1.205-.9-3.424-2.467-6.656-4.702A7.13 7.13 0 0 1 0 6v10.82c0 .6.21 1.112.63 1.54.419.427.924.64 1.513.64h19.714c.59 0 1.094-.213 1.514-.64.42-.428.629-.94.629-1.54V6c-.384.436-.83.831-1.34 1.185z"/>
    </g>
</svg>
