<svg xmlns="http://www.w3.org/2000/svg" width="27" height="27" viewBox="0 0 27 27">
    <path fill="#475993" fill-rule="nonzero" d="M23.362 0H3.638A3.638 3.638 0 0 0 0 3.638v19.724A3.638 3.638 0 0 0 3.638 27h9.728l.016-9.648h-2.506a.591.591 0 0 1-.592-.59l-.012-3.11a.591.591 0 0 1 .592-.593h2.502v-3.005c0-3.488 2.13-5.387 5.24-5.387h2.554c.326 0 .591.265.591.592V7.88a.592.592 0 0 1-.591.592h-1.567c-1.692 0-2.02.804-2.02 1.984v2.602h3.718c.355 0 .63.309.588.66l-.369 3.11a.591.591 0 0 1-.587.523H17.59L17.574 27h5.788A3.638 3.638 0 0 0 27 23.362V3.638A3.638 3.638 0 0 0 23.362 0z"/>
</svg>
