<svg xmlns="http://www.w3.org/2000/svg" width="24" height="24" viewBox="0 0 24 24">
    <defs>
        <linearGradient id="a" x1="6.714%" x2="93.608%" y1="93.485%" y2="6.619%">
            <stop offset="0%" stop-color="#FD5"/>
            <stop offset="50%" stop-color="#FF543E"/>
            <stop offset="100%" stop-color="#C837AB"/>
        </linearGradient>
    </defs>
    <g fill="none" fill-rule="nonzero">
        <path fill="url(#a)" d="M1.566 1.666C-.315 3.62.07 5.694.07 11.996c0 5.234-.914 10.481 3.867 11.716 1.492.384 14.718.384 16.209-.002 1.99-.513 3.61-2.127 3.83-4.941.032-.393.032-13.145 0-13.546C23.74 2.226 21.895.498 19.463.148c-.557-.08-.67-.105-3.529-.11C5.79.043 3.567-.408 1.566 1.666z"/>
        <path fill="#FFF" d="M12 3.009c-3.686 0-7.187-.328-8.524 3.1-.552 1.417-.472 3.256-.472 5.89 0 2.31-.074 4.483.472 5.888 1.334 3.43 4.863 3.102 8.522 3.102 3.53 0 7.17.367 8.523-3.102.554-1.43.472-3.243.472-5.888 0-3.512.194-5.78-1.51-7.482-1.726-1.724-4.06-1.508-7.487-1.508H12zm-.806 1.62c7.69-.012 8.668-.867 8.128 11-.192 4.196-3.39 3.736-7.32 3.736-7.168 0-7.375-.205-7.375-7.37 0-7.249.569-7.362 6.567-7.368v.002zm5.608 1.492a1.079 1.079 0 1 0 0 2.158 1.079 1.079 0 0 0 0-2.158zM12 7.382a4.617 4.617 0 0 0 0 9.233 4.617 4.617 0 1 0 0-9.233zm0 1.62c3.965 0 3.97 5.993 0 5.993-3.963 0-3.97-5.993 0-5.993z"/>
    </g>
</svg>
