<svg xmlns="http://www.w3.org/2000/svg" width="24" height="25" viewBox="0 0 24 25">
    <path fill="#0077B7" fill-rule="nonzero" d="M21.829 0H2.171C.972 0 0 1.012 0 2.261v20.477C0 23.988.972 25 2.171 25h19.658C23.028 25 24 23.988 24 22.738V2.261C24 1.012 23.028 0 21.829 0zM7.427 21.587a.645.645 0 0 1-.632.658h-2.69a.645.645 0 0 1-.631-.658V9.843c0-.363.283-.658.631-.658h2.69c.349 0 .632.295.632.658v11.744zM5.45 8.078c-1.41 0-2.555-1.192-2.555-2.661 0-1.47 1.144-2.662 2.555-2.662 1.411 0 2.555 1.192 2.555 2.662S6.861 8.078 5.45 8.078zM21.481 21.64c0 .334-.26.605-.58.605h-2.887c-.32 0-.58-.271-.58-.605V16.13c0-.821.23-3.6-2.062-3.6-1.779 0-2.14 1.902-2.212 2.755v6.354c0 .334-.26.605-.58.605H9.787c-.32 0-.58-.271-.58-.605V9.79c0-.334.26-.605.58-.605h2.791c.321 0 .581.271.581.605v1.025c.66-1.031 1.64-1.827 3.727-1.827 4.62 0 4.594 4.497 4.594 6.968v5.684z"/>
</svg>
