<svg xmlns="http://www.w3.org/2000/svg" width="24" height="24" viewBox="0 0 24 24">
    <g fill="#F7F8FC" fill-rule="nonzero">
        <path d="M17.661 16.137c-.759-.75-1.706-.75-2.46 0-.575.57-1.15 1.14-1.716 1.72-.155.16-.285.194-.474.088-.372-.203-.769-.367-1.126-.59-1.668-1.049-3.065-2.397-4.303-3.915-.614-.754-1.16-1.562-1.542-2.47-.077-.184-.063-.305.087-.455.575-.556 1.136-1.126 1.702-1.697.788-.792.788-1.72-.005-2.518-.45-.455-.9-.9-1.349-1.354-.464-.464-.923-.933-1.392-1.392-.759-.74-1.706-.74-2.46.005-.58.57-1.137 1.155-1.726 1.716-.547.517-.822 1.15-.88 1.89-.092 1.204.203 2.34.619 3.447.85 2.291 2.146 4.326 3.717 6.192 2.122 2.523 4.655 4.52 7.619 5.96 1.334.648 2.716 1.146 4.22 1.228 1.034.058 1.933-.203 2.654-1.01.493-.551 1.049-1.054 1.57-1.58.774-.784.78-1.731.01-2.505-.918-.923-1.841-1.842-2.765-2.76zM17.222 12L19 11.69a8.18 8.18 0 0 0-2.22-4.381A7.841 7.841 0 0 0 12.25 5L12 6.826a6.084 6.084 0 0 1 3.507 1.787A6.311 6.311 0 0 1 17.222 12zM20.135 3.692C17.985 1.67 15.265.394 12.262 0L12 1.76c2.594.342 4.945 1.448 6.802 3.19 1.761 1.656 2.917 3.748 3.336 6.05L24 10.701c-.49-2.667-1.827-5.087-3.865-7.009z"/>
    </g>
</svg>
