<svg xmlns="http://www.w3.org/2000/svg" width="28" height="22" viewBox="0 0 28 22">
    <path fill="#03A9F4" fill-rule="nonzero" d="M28 2.604c-1.041.442-2.15.735-3.308.877 1.19-.687 2.099-1.767 2.526-3.068a11.712 11.712 0 0 1-3.64 1.344A5.845 5.845 0 0 0 19.385 0c-3.178 0-5.737 2.494-5.737 5.552 0 .44.039.864.133 1.266C9.01 6.593 4.786 4.381 1.95 1.012a5.449 5.449 0 0 0-.785 2.806c0 1.922 1.024 3.626 2.55 4.613a5.818 5.818 0 0 1-2.594-.684v.061c0 2.698 1.99 4.938 4.599 5.455a5.914 5.914 0 0 1-1.505.182c-.368 0-.739-.02-1.087-.094.744 2.198 2.854 3.814 5.364 3.867a11.786 11.786 0 0 1-7.117 2.367c-.471 0-.923-.02-1.374-.076C2.543 21.095 5.556 22 8.806 22c10.563 0 16.338-8.462 16.338-15.796 0-.245-.009-.482-.021-.718A11.25 11.25 0 0 0 28 2.604z"/>
</svg>
